<svg xmlns="http://www.w3.org/2000/svg" width="18" height="18" viewBox="0 0 18 18"><g><g><path fill="#888" d="M3.588 16.94c-1.95-.505-3.114-1.775-3.424-3.75-.23-1.45-.255-8.19.164-9.654C.874 1.629 2.146.51 4.075.193 4.949.05 6.659 0 8.385 0c1.605 0 3.224.044 4.198.098 1.181.062 2.262.442 3.14 1.284.836.8 1.264 1.802 1.372 2.935.128 1.353.211 7.748-.187 9.247-.533 1.96-1.813 3.12-3.797 3.439-.742.12-2.744.191-4.744.191-2.047 0-4.092-.075-4.779-.254zm.918-15.255c-1.5.172-2.509 1.098-2.748 2.59-.247 1.58-.243 7.492-.059 8.68.19 1.236.89 2.085 2.123 2.43.667.188 2.665.254 4.624.254 1.804 0 3.575-.056 4.241-.13 1.514-.165 2.515-1.097 2.754-2.602.247-1.513.248-7.03.107-8.446-.155-1.513-1.08-2.507-2.576-2.742-.74-.112-2.525-.162-4.3-.162-1.712 0-3.417.047-4.166.128zM4.19 8.597a4.443 4.443 0 0 1 4.447-4.406 4.37 4.37 0 0 1 4.372 4.413 4.451 4.451 0 0 1-4.446 4.406A4.366 4.366 0 0 1 4.19 8.597zm1.555-.027a2.826 2.826 0 0 0 2.802 2.879h.026a2.88 2.88 0 0 0 2.876-2.824 2.823 2.823 0 0 0-2.803-2.88H8.62A2.88 2.88 0 0 0 5.745 8.57zm6.443-4.551a1.034 1.034 0 0 1 1.031-1.03h.013c.566 0 1.025.464 1.02 1.037a1.043 1.043 0 0 1-1.043 1.029 1.028 1.028 0 0 1-1.021-1.036z"/></g></g></svg>