<svg xmlns="http://www.w3.org/2000/svg" width="23" height="15" viewBox="0 0 23 15"><g><g><path fill="#888" d="M6.75 14.35c-1.407-.083-2.688-.525-3.822-1.36C1.466 11.911.545 10.474.158 8.7A6.484 6.484 0 0 1 .02 6.768a7.038 7.038 0 0 1 1.62-4.102C2.657 1.415 3.954.6 5.504.207a5.805 5.805 0 0 1 1.19-.186C6.921.013 7.15 0 7.377 0a6.739 6.739 0 0 1 3.397.932c.702.4 1.1.808 1.27.932-.715.705-1.404 1.395-2.107 2.086-.522-.45-1.099-.863-2.099-1.016a4.322 4.322 0 0 0-.613-.044c-2.007 0-3.688 1.45-4.136 3.353a3.938 3.938 0 0 0-.1 1.298c.153 1.768 1.337 3.218 2.935 3.736.407.128.83.189 1.254.189.1 0 .198-.003.298-.01.753-.048 1.459-.248 2.097-.67 1.076-.732 1.424-1.878 1.426-2.161H7.154l.02-2.77.008-.117h6.754c.363 2.107.037 4.323-1.275 6.056-.907 1.195-2.114 1.948-3.553 2.32a7.738 7.738 0 0 1-2.357.236zm11.44-4.054v-.07l.019-2.43h-2.507V7.72l.015-1.816v-.07h2.507l.018-2.437v-.069h1.962v.07l-.019 2.437h2.507v.069l-.015 1.816v.076H20.17l-.019 2.43v.07z"/></g></g></svg>