<?xml version="1.0" encoding="utf-8"?><svg viewBox="0 0 22 20" xmlns="http://www.w3.org/2000/svg" xmlns:xlink="http://www.w3.org/1999/xlink"><style>:root>svg{display:none}:root>svg:target{display:block}</style><svg viewBox="0 0 22 20" id="cart" xmlns="http://www.w3.org/2000/svg"><path fill="#a3bbc8" d="M0 .814c0-.449.366-.816.814-.816h2.943c.367 0 .692.245.787.598l3.323 12.038h9.062l3.011-6.929H9.902a.817.817 0 010-1.631h11.286a.81.81 0 01.678.366c.15.233.177.517.068.776l-3.717 8.56a.815.815 0 01-.746.488H7.257a.814.814 0 01-.787-.597L3.147 1.629H.814A.817.817 0 010 .814zM4.639 18.15c0-1.019.827-1.847 1.845-1.847a1.848 1.848 0 010 3.696 1.848 1.848 0 01-1.845-1.849zm11.544.123a1.85 1.85 0 011.709-1.97 1.85 1.85 0 011.52 3.057c-.327.38-.774.598-1.263.639h-.135a1.85 1.85 0 01-1.831-1.726z"/></svg><svg viewBox="0 0 22 18" id="like" xmlns="http://www.w3.org/2000/svg"><path fill="#a3bbc8" d="M20.72 10.158c-.87 1.322-3.1 3.387-4.746 4.754-1.696 1.407-3.933 3.087-4.965 3.087-1.015 0-3.26-1.682-4.965-3.093-1.66-1.374-3.902-3.44-4.763-4.748C.32 8.7-.072 7.361.01 5.82a6.21 6.21 0 011.848-4.1C2.985.61 4.455-.001 5.999-.001c2.461 0 4.133 1.904 4.937 2.82l.083.094.156-.17C12.055 1.785 13.691 0 16.002 0c1.543 0 3.014.61 4.14 1.72a6.21 6.21 0 011.848 4.1c.105 1.972-.624 3.354-1.27 4.338zm-.052-4.267c-.135-2.519-2.228-4.57-4.666-4.57-1.729 0-3.057 1.45-3.851 2.317-.479.523-.742.81-1.15.81-.397 0-.632-.268-1.06-.756-.727-.828-2.08-2.37-3.943-2.37-2.438 0-4.531 2.05-4.666 4.57-.066 1.24.259 2.331 1.054 3.537.624.948 2.407 2.716 4.437 4.402 2.418 2.01 3.846 2.808 4.188 2.843.341-.031 1.766-.822 4.172-2.826 2.019-1.682 3.799-3.457 4.43-4.418.807-1.226 1.122-2.285 1.055-3.539z"/></svg><svg viewBox="0 0 20 20" id="searh" xmlns="http://www.w3.org/2000/svg"><path fill="#a3bbc8" d="M19.45 19.448a1.874 1.874 0 01-2.65 0l-4.59-4.588a8.812 8.812 0 002.652-2.651l4.588 4.59c.733.731.733 1.92 0 2.65zM7.5 14.998a7.5 7.5 0 110-15 7.5 7.5 0 010 15zm5.625-7.5A5.632 5.632 0 007.5 1.874 5.632 5.632 0 001.875 7.5 5.63 5.63 0 007.5 13.123 5.63 5.63 0 0013.125 7.5zM7.5 3.124v1.251A3.128 3.128 0 004.375 7.5h-1.25A4.38 4.38 0 017.5 3.123z"/></svg></svg>